<?xml version="1.0" standalone="no"?>
<!DOCTYPE svg PUBLIC "-//W3C//DTD SVG 20010904//EN"
 "http://www.w3.org/TR/2001/REC-SVG-20010904/DTD/svg10.dtd">
<svg version="1.0" xmlns="http://www.w3.org/2000/svg"
 width="200.000000pt" height="200.000000pt" viewBox="0 0 200.000000 200.000000"
 preserveAspectRatio="xMidYMid meet">
<metadata>
Created by potrace 1.11, written by Peter Selinger 2001-2013
</metadata>
<g transform="translate(0.000000,200.000000) scale(0.100000,-0.100000)"
fill="#000000" stroke="none">
<path d="M122 1332 c-4 -1 -6 -36 -4 -77 3 -50 0 -80 -8 -90 -11 -13 -4 -15
54 -15 59 0 66 2 66 19 0 18 -2 19 -26 6 -35 -18 -51 -10 -56 26 -5 31 4 36
41 27 7 -1 15 5 16 14 3 14 -2 16 -27 11 -28 -6 -29 -5 -26 27 2 26 8 34 26
37 13 2 25 -3 28 -12 9 -23 24 -18 21 7 -3 19 -10 22 -50 23 -26 0 -50 -1 -55
-3z"/>
<path d="M266 1333 c-2 -3 -1 -15 3 -27 13 -36 6 -137 -10 -147 -10 -6 -2 -9
26 -9 30 0 36 3 27 12 -16 16 -16 140 0 156 7 7 8 12 3 13 -6 0 -18 2 -27 4
-9 2 -19 1 -22 -2z"/>
<path d="M372 1332 c-12 -2 -20 -7 -17 -12 2 -4 -6 -24 -20 -44 l-24 -36 27
-45 c19 -32 33 -45 49 -45 23 0 23 0 4 19 -11 11 -27 34 -36 51 -16 30 -15 32
16 71 34 44 35 46 1 41z"/>
<path d="M470 1327 c-71 -35 -64 -149 10 -173 66 -22 117 28 106 104 -7 59
-66 94 -116 69z m75 -33 c16 -25 16 -67 0 -106 -18 -44 -81 -26 -90 26 -16 83
49 142 90 80z"/>
<path d="M622 1333 c-6 -3 -9 -10 -5 -16 11 -18 12 -129 1 -149 -7 -15 -4 -18
15 -18 22 0 24 3 18 38 -3 20 -5 44 -5 52 1 8 2 22 3 30 0 8 21 -16 46 -53 59
-87 72 -87 70 1 -1 37 2 77 6 90 6 16 5 22 -6 22 -27 0 -30 -2 -26 -14 7 -20
7 -115 0 -110 -4 2 -24 31 -45 64 -40 61 -50 70 -72 63z"/>
<path d="M841 1319 c-17 -10 -31 -24 -32 -31 0 -7 -3 -25 -5 -40 -11 -66 53
-118 113 -93 38 16 53 42 53 89 0 71 -69 111 -129 75z m83 -21 c42 -59 -8
-165 -60 -130 -23 15 -35 53 -28 88 12 63 58 85 88 42z"/>
<path d="M1005 1322 c8 -21 8 -16 6 -84 -1 -37 -6 -62 -17 -72 -14 -15 -13
-16 13 -16 l28 0 -2 67 -2 68 26 -58 c15 -32 31 -56 37 -54 6 2 20 28 33 58
12 30 23 52 23 49 9 -36 8 -106 -1 -116 -9 -11 -5 -14 21 -14 27 0 31 3 25 18
-5 9 -9 50 -11 90 -2 39 -5 72 -8 72 -3 0 -13 0 -21 0 -8 0 -15 -6 -16 -12 0
-7 -10 -35 -23 -63 l-22 -49 -23 62 c-13 34 -26 62 -30 63 -3 0 -14 2 -24 4
-14 3 -17 -1 -12 -13z"/>
<path d="M1239 1330 c-1 -3 -1 -9 0 -13 7 -43 1 -151 -10 -157 -7 -5 18 -10
54 -12 66 -3 67 -3 67 22 0 14 -3 20 -8 14 -7 -11 -32 -18 -59 -15 -7 0 -13
14 -13 30 0 20 6 30 20 34 11 3 20 1 20 -4 0 -5 5 -9 10 -9 6 0 10 9 10 20 0
16 -5 19 -31 13 -30 -6 -30 -5 -27 27 2 25 8 34 25 36 12 2 29 -3 37 -12 15
-14 16 -13 16 9 0 22 -3 24 -55 23 -30 -1 -55 -3 -56 -6z"/>
<path d="M1396 1333 c-20 -3 -25 -7 -17 -13 19 -11 18 -149 0 -161 -10 -6 -4
-9 18 -9 31 0 31 1 26 40 -4 26 -2 40 5 40 7 0 21 -18 32 -40 13 -26 27 -40
40 -40 11 0 20 5 20 11 0 5 -4 8 -8 5 -5 -3 -16 10 -25 29 -14 29 -14 36 -2
42 7 4 16 19 20 33 11 44 -41 73 -109 63z m78 -35 c14 -23 -3 -52 -33 -56 -19
-3 -21 1 -21 38 0 37 2 41 21 38 12 -2 27 -11 33 -20z"/>
<path d="M1540 1329 c0 -4 4 -11 10 -14 12 -8 10 -136 -3 -152 -7 -10 -3 -13
16 -13 26 0 27 5 13 108 -5 35 6 26 53 -43 24 -36 50 -65 57 -65 8 0 11 18 10
63 -2 34 1 74 5 90 7 25 6 27 -24 27 -24 0 -28 -3 -17 -10 10 -6 15 -28 16
-64 0 -31 -2 -53 -6 -51 -4 3 -25 31 -46 64 -24 38 -47 61 -61 64 -13 2 -23 1
-23 -4z"/>
<path d="M1785 1323 c8 -21 -34 -145 -54 -160 -14 -11 -11 -12 17 -13 19 0 31
4 27 10 -3 5 -3 21 1 35 9 36 61 36 70 1 3 -14 3 -30 -1 -35 -4 -7 6 -11 26
-11 24 0 29 3 22 13 -6 6 -20 41 -32 77 -26 79 -30 85 -59 93 -19 4 -22 2 -17
-10z m38 -55 c6 -23 -12 -43 -25 -30 -9 9 1 52 12 52 4 0 10 -10 13 -22z"/>
<path d="M972 959 l-42 -71 32 3 c18 2 32 -1 32 -6 -1 -6 -5 -26 -8 -45 l-7
-35 18 22 c10 13 31 46 47 74 l29 51 -35 -4 -35 -4 9 34 c17 59 4 54 -40 -19z"/>
<path d="M698 926 c-5 -23 -2 -25 34 -24 33 0 38 3 38 24 0 15 -6 24 -16 24
-11 0 -15 -6 -12 -18 4 -13 -1 -18 -15 -19 -15 -2 -17 1 -8 10 15 15 14 27 -3
27 -7 0 -16 -11 -18 -24z"/>
<path d="M783 930 c3 -21 17 -40 17 -22 0 5 3 17 6 26 4 11 1 16 -10 16 -10 0
-15 -7 -13 -20z"/>
<path d="M1165 940 c-3 -5 -1 -10 6 -10 7 0 4 -7 -7 -15 -19 -14 -18 -14 4
-15 17 0 22 6 22 25 0 25 -14 33 -25 15z"/>
<path d="M1212 937 c-13 -15 1 -42 17 -33 13 9 15 33 2 40 -5 3 -13 0 -19 -7z"/>
<path d="M1260 935 c-9 -11 -10 -19 -2 -27 14 -14 32 -1 32 23 0 23 -13 25
-30 4z"/>
<path d="M1307 943 c-4 -3 -1 -13 6 -21 9 -13 9 -14 0 -8 -8 4 -13 2 -13 -4 0
-21 33 -5 36 18 4 21 -14 31 -29 15z"/>
<path d="M720 844 c0 -10 -11 -36 -25 -55 -22 -34 -24 -49 -3 -49 4 0 7 3 6 8
-1 4 6 23 14 42 15 33 16 33 18 10 1 -14 3 -29 5 -35 1 -5 3 -20 3 -32 3 -34
14 -28 48 27 23 35 28 50 19 54 -8 3 -16 -5 -19 -17 -3 -12 -11 -30 -19 -40
-12 -17 -13 -14 -16 30 -1 26 -9 55 -17 63 -12 12 -14 12 -14 -6z"/>
<path d="M1226 831 c-20 -22 -14 -61 15 -87 15 -14 26 -16 46 -8 14 5 28 16
31 24 4 12 2 13 -9 3 -7 -7 -21 -13 -31 -13 -24 0 -51 44 -43 70 7 22 20 26
30 10 4 -6 11 -8 16 -4 5 3 7 10 4 15 -10 15 -41 10 -59 -10z"/>
<path d="M1152 801 c-10 -6 -10 -10 2 -20 8 -7 17 -30 21 -52 4 -24 12 -39 21
-39 8 0 14 1 14 3 -2 9 -38 108 -41 112 -3 2 -10 0 -17 -4z"/>
<path d="M842 788 c4 -22 -13 -93 -24 -99 -5 -4 7 -10 27 -13 45 -9 70 7 55
34 -7 13 -7 21 0 25 22 13 10 43 -21 54 -40 14 -40 14 -37 -1z m46 -30 c-2
-13 -7 -23 -13 -23 -5 0 -11 10 -13 23 -2 15 2 22 13 22 11 0 15 -7 13 -22z
m-8 -43 c9 -11 10 -19 2 -27 -14 -14 -32 -1 -32 23 0 23 13 25 30 4z"/>
<path d="M1005 766 c-17 -12 -17 -16 -5 -31 11 -13 11 -18 1 -24 -7 -5 -11
-17 -9 -27 2 -14 12 -19 38 -19 29 0 36 4 38 23 2 12 8 22 13 22 5 0 9 7 9 15
0 8 -4 15 -9 15 -5 0 -11 -7 -15 -15 -3 -8 -11 -15 -18 -15 -20 0 -38 34 -27
51 8 12 10 12 18 -1 11 -16 27 -7 16 9 -9 15 -27 14 -50 -3z m52 -80 c-5 -17
-47 -20 -47 -3 0 20 9 26 31 20 11 -3 18 -11 16 -17z"/>
</g>
</svg>
